{"title":"Yeh Hai Aashiqui - Indian Telefilm - HDTVRip 720p x264 AAC [ TaR","uid":15171589,"size":417953019,"categoryP":"video","categoryS":"tv_shows","magnet":"?xt=urn:btih:b42949ddcd0874b5930100a44e505a30bb41a430&amp;dn=Yeh+Hai+Aashiqui+-+Indian+Telefilm+-+HDTVRip+720p+x264+AAC+%5B+TaR&amp;tr=udp%3A%2F%2Ftracker.leechers-paradise.org%3A6969&amp;tr=udp%3A%2F%2Fzer0day.ch%3A1337&amp;tr=udp%3A%2F%2Fopen.demonii.com%3A1337&amp;tr=udp%3A%2F%2Ftracker.coppersurfer.tk%3A6969&amp;tr=udp%3A%2F%2Fexodus.desync.com%3A6969","seeders":0,"leechers":1,"uploader":"MdTaRa","files":1,"time":1467397390,"description":"General\r\nUnique ID                   : 196429996411775656397872129462133476802 (0x93C70A8C82E19D9BAA084D52F3B24DC2)\r\nComplete name               : K:HD Songs &amp; OtherTELEFLIMYeh Hai Aashiqui - Indian Telefilm - HDTVRip 720p x264 AAC [ TaRa ].mkv\r\nFormat                      : Matroska\r\nFormat version              : Version 4 / Version 2\r\nFile size                   : 399 MiB\r\nDuration                    : 43mn 4s\r\nOverall bit rate            : 1 293 Kbps\r\nMovie name                  : Yeh Hai Aashiqui - Indian Telefilm - HDTVRip 720p x264 AAC [ TaRa ]\r\nEncoded date                : UTC 2016-07-02 04:48:54\r\nWriting application         : mkvmerge v8.3.0 ('Over the Horizon') 64bit\r\nWriting library             : libebml v1.3.1 + libmatroska v1.4.2\r\n\r\nVideo\r\nID                          : 1\r\nFormat                      : AVC\r\nFormat/Info                 : Advanced Video Codec\r\nFormat profile              :   \r\nFormat settings, CABAC      : Yes\r\nFormat settings, ReFrames   : 4 frames\r\nCodec ID                    : V_MPEG4/ISO/AVC\r\nDuration                    : 43mn 4s\r\nBit rate                    : 1 101 Kbps\r\nWidth                       : 1 280 pixels\r\nHeight                      : 720 pixels\r\nDisplay aspect ratio        : 16:9\r\nFrame rate mode             : Constant\r\nFrame rate                  : 29.970 (30000/1001) fps\r\nColor space                 : YUV\r\nChroma subsampling          : 4:2:0\r\nBit depth                   : 8 bits\r\nScan type                   : Progressive\r\nBits/(Pixel*Frame)          : 0.040\r\nStream size                 : 339 MiB (85%)\r\nTitle                       : ....:::::TaRa :::::...\r\nWriting library             : x264 core 112\r\nEncoding settings           : cabac=1 / ref=4 / deblock=1:0:0 / analyse=0x1:0x111 / me=hex / subme=6 / psy=1 / psy_rd=1.00:0.00 / mixed_ref=0 / me_range=16 / chroma_me=1 / trellis=0 / 8x8dct=0 / cqm=0 / deadzone=21,11 / fast_pskip=1 / chroma_qp_offset=-2 / threads=3 / sliced_threads=0 / nr=0 / decimate=1 / interlaced=0 / constrained_intra=0 / bframes=2 / b_pyramid=2 / b_adapt=1 / b_bias=0 / direct=1 / weightb=0 / open_gop=0 / weightp=2 / keyint=300 / keyint_min=29 / scenecut=40 / intra_refresh=0 / rc_lookahead=40 / rc=abr / mbtree=1 / bitrate=1101 / ratetol=1.0 / qcomp=0.60 / qpmin=3 / qpmax=51 / qpstep=4 / ip_ratio=1.40 / aq=1:1.00\r\nLanguage                    : Hindi\r\nDefault                     : Yes\r\nForced                      : No\r\nColor range                 : Limited\r\nColor primaries             : BT.709\r\nTransfer characteristics    : BT.709\r\nMatrix coefficients         : BT.709\r\n\r\nAudio\r\nID                          : 2\r\nFormat                      : AAC\r\nFormat/Info                 : Advanced Audio Codec\r\nFormat profile              : LC\r\nCodec ID                    : A_AAC\r\nDuration                    : 43mn 4s\r\nBit rate                    : 192 Kbps\r\nChannel(s)                  : 2 channels\r\nChannel positions           : Front: L R\r\nSampling rate               : 48.0 KHz\r\nFrame rate                  : 46.875 fps (1024 spf)\r\nCompression mode            : Lossy\r\nStream size                 : 59.2 MiB (15%)\r\nTitle                       : ....:::::TaRa :::::...\r\nLanguage                    : Hindi\r\nDefault                     : Yes\r\nForced                      : No\r\n=============================================================================== \nhttps://picoolio.net/image/I8al","torrent":{"xt":"urn:btih:b42949ddcd0874b5930100a44e505a30bb41a430","amp;dn":"Yeh+Hai+Aashiqui+-+Indian+Telefilm+-+HDTVRip+720p+x264+AAC+%5B+TaR","amp;tr":["udp%3A%2F%2Ftracker.leechers-paradise.org%3A6969","udp%3A%2F%2Fzer0day.ch%3A1337","udp%3A%2F%2Fopen.demonii.com%3A1337","udp%3A%2F%2Ftracker.coppersurfer.tk%3A6969","udp%3A%2F%2Fexodus.desync.com%3A6969"],"infoHash":"b42949ddcd0874b5930100a44e505a30bb41a430","infoHashBuffer":{"type":"Buffer","data":[180,41,73,221,205,8,116,181,147,1,0,164,78,80,90,48,187,65,164,48]},"announce":[],"urlList":[]}}